<svg xmlns="http://www.w3.org/2000/svg" width="375" height="300"><path d="M-263.4 570.9c29.7 77.3 73.7 124 171.8 127.4 98.1 3.4 167.1-60.6 256-73.2 89-12.7 135.3 107.9 240.8 152.5 105.5 44.6 274.8.3 378-125.6 103-126 95.4-324.7 16.2-413.2s-191.1-154-555.9-14S-293 493.6-263.4 570.9zM-514-377.5c0 82.9 24.4 142.2 114.7 180.5 90.4 38.3 177.7 3.4 265.3 23.4 87.6 20 87.6 149.2 170 228.7 82.6 79.4 256.5 98.8 398 18.1C575.2-7.4 639.3-195.7 597.1-306.7 554.9-417.7 473.9-519 83.2-519S-514-460.3-514-377.5z" fill="#4B3F6B" fill-rule="evenodd"/></svg>