<svg xmlns="http://www.w3.org/2000/svg" width="1440" height="250"><path d="M830-63.5c0 82.8 24.4 142.2 114.7 180.5 90.4 38.3 177.7 3.4 265.3 23.4 87.6 20 87.6 149.2 170 228.7 82.6 79.4 256.5 98.7 398 18.1 141.3-80.6 205.4-268.9 163.2-379.9-42.3-111-123.3-212.3-514-212.3S830-146.3 830-63.5zM-263.3 571c29.6 77.3 73.6 124 171.7 127.4 98.1 3.4 167.1-60.6 256-73.2 89-12.7 135.3 107.9 240.8 152.5 105.5 44.6 274.8.3 378-125.6 103-126 95.4-324.7 16.2-413.2s-191.1-154-555.9-14S-293 493.5-263.3 570.8zM-514-377.5c0 82.8 24.4 142.2 114.7 180.5 90.4 38.3 177.7 3.3 265.3 23.4C-46.4-153.6-46.4-24.4 36 55c82.6 79.4 256.5 98.8 398 18.1C575.2-7.4 639.3-195.7 597.1-306.7 554.9-417.7 473.9-519 83.2-519S-514-460.3-514-377.5z" fill="#4B3F6B" fill-rule="evenodd"/></svg>