<svg xmlns="http://www.w3.org/2000/svg" width="1110" height="168"><path fill="#4B3F6B" fill-rule="evenodd" d="M647-94c0 52.8 15.5 90.6 73 115 57.5 24.4 113 2 168.8 14.9 55.7 12.7 55.7 94.9 108.2 145.5s163.1 62.9 253.1 11.6c90-51.4 130.8-171.2 103.9-241.8-26.9-70.7-78.4-135.2-327-135.2s-380 37.4-380 90zm-781 213c0 52.8 15.5 90.6 73 115 57.5 24.3 113 2 168.8 14.8 55.7 12.8 55.7 95 108.2 145.6s163.1 62.9 253.1 11.6c90-51.4 130.8-171.2 103.9-241.8C546.1 93.5 494.6 29 246 29s-380 37.4-380 90z"/></svg>