<svg xmlns="http://www.w3.org/2000/svg" width="48" height="48"><path fill="#2BD0D0" d="M46.6 6a1 1 0 0 0-1 0l-7.5 3.6a8.3 8.3 0 0 0-4.8 6.8l-.2 2.4-4 6.6v-2.8a1 1 0 0 0 0-.3l-1.8-5.5L31 9.3a1 1 0 0 0 0-1l-6-8a1 1 0 0 0-1.5 0l-6 8a1 1 0 0 0 0 1l3.7 7.5-1.8 5.5a1 1 0 0 0 0 .3v4l-6.2-9.4a1 1 0 0 0-.2-.2h-.1l-3.6-2.2-1.5-2.2-2.2-3.3a1 1 0 0 0-1.1-.4L.6 10.2a1 1 0 0 0-.4 1.5l2.7 4.1 1.5 2.3.5 4.1v.1a1 1 0 0 0 0 .3H5L19.7 45a4.9 4.9 0 0 0 4.5 3.1l1.2-.1a4.9 4.9 0 0 0 3-2.3L41.6 24l2.1-1.3a8.3 8.3 0 0 0 2.7-2.7 8.3 8.3 0 0 0 1.1-4.7l-.3-8.4a1 1 0 0 0-.5-.8zm-7.1 17.5L38 26.1l-5-3 1.4-2.6 5.1 3zm-18.2 15v-15h5.9v5.2l-5.9 9.8zM23 17.6h2.5l1.3 4h-5.1l1.3-4zm1.3-6.9a1 1 0 1 1 0-2 1 1 0 0 1 0 2zm0-8.2L29 8.9l-3.4 6.8h-.4v-3.1a3 3 0 1 0-2 0v3.1H23L19.5 9l4.8-6.3zM10.5 17.8l-.3.2-3.6 2.4-.3-2.8a1 1 0 0 0-.2-.4l-1-1.7 1.6-1 1 1.6a1 1 0 0 0 .4.3l2.4 1.4zm-6-6.8 1.1 1.8L4 14l-1.5-2.2 2-.7zm5.2 9.8L12 19l7.3 11v10.7L7.2 22.4l2.5-1.6zm17 23.8a3 3 0 1 1-5-3l7.5-12.4 2.7-4.5 2.5 1.5 2.6 1.6-10.2 16.8zm17.9-25.7a6.3 6.3 0 0 1-2 2l-1.8 1.2-2.8-1.8-2.9-1.7.2-2a6.3 6.3 0 0 1 3.6-5.3l6.3-3 .1 2.8a1 1 0 0 0-.3 0l-2.4.6a6 6 0 0 0-4.4 4.6 1 1 0 0 0 2 .4 4 4 0 0 1 2.9-3l2.3-.6.1 2.2a6.3 6.3 0 0 1-.9 3.6z"/></svg>