<svg xmlns="http://www.w3.org/2000/svg" width="40" height="40"><path fill="#2BD0D0" d="M36.4 11.7c.7 0 1.2.5 1.2 1.2v24.8h1.2a1.2 1.2 0 1 1 0 2.3H1.2a1.2 1.2 0 1 1 0-2.3h1.2V24.6c0-.7.6-1.2 1.2-1.2h4.7c.6 0 1.2.6 1.2 1.2v13h2.3v-8.3c0-.7.5-1.2 1.2-1.2h4.7c.6 0 1.1.6 1.1 1.2v8.4h2.4V19.9c0-.6.5-1.1 1.1-1.1H27c.7 0 1.2.5 1.2 1.1v17.8h2.3V12.9c0-.7.6-1.2 1.2-1.2zm-1.2 2.4H33v23.6h2.3V14zM26 21h-2.4v16.6H26V21zm-9.4 9.4H14v7.2h2.4v-7.2zM7 25.8H4.8v11.9H7v-12zM34.1 0a3.5 3.5 0 0 1 3.5 3.5A3.5 3.5 0 0 1 34 7c-.8 0-1.4-.2-2-.6l-4 3.1a3.5 3.5 0 0 1-3.4 4.6 3.5 3.5 0 0 1-1.5-.4l-4.7 4.7.3 1.5a3.5 3.5 0 0 1-3.5 3.5 3.5 3.5 0 0 1-3.5-4l-3.4-1.6a3.5 3.5 0 0 1-2.5 1 3.5 3.5 0 0 1-3.5-3.6A3.5 3.5 0 0 1 6 11.7a3.5 3.5 0 0 1 3.5 4l3.5 1.7a3.5 3.5 0 0 1 4-.6l4.6-4.7a3.5 3.5 0 0 1-.3-1.6A3.5 3.5 0 0 1 24.7 7c.7 0 1.4.2 2 .6l4-3A3.5 3.5 0 0 1 34.1 0zM15.3 18.8a1.2 1.2 0 1 0 0 2.3 1.2 1.2 0 0 0 0-2.4zM6 14a1.2 1.2 0 1 0 0 2.3 1.2 1.2 0 0 0 0-2.3zm18.8-4.7a1.2 1.2 0 1 0 0 2.3 1.2 1.2 0 0 0 0-2.3zm9.4-7a1.2 1.2 0 1 0 0 2.3 1.2 1.2 0 0 0 0-2.4z"/></svg>