<svg xmlns="http://www.w3.org/2000/svg" width="733" height="482"><defs><linearGradient id="a" x1="0%" x2="100%" y1="50%" y2="50%"><stop offset="0%" stop-color="#183866"/><stop offset="100%" stop-color="#1A7FC1"/></linearGradient><linearGradient id="b" x1="-.1%" x2="100%" y1="50.1%" y2="50.1%"><stop offset="0%"/><stop offset="99%" stop-opacity="0"/></linearGradient><linearGradient id="c" x1="176.1%" x2="310.4%" y1="-566%" y2="-534.6%"><stop offset="0%"/><stop offset="99%" stop-opacity="0"/></linearGradient><linearGradient id="d" x1="58.9%" x2="52.3%" y1="-258%" y2="-277.3%"><stop offset="0%"/><stop offset="99%" stop-opacity="0"/></linearGradient><linearGradient id="e" x1="156.1%" x2="8.1%" y1="-63.3%" y2="-76.1%"><stop offset="0%"/><stop offset="99%" stop-opacity="0"/></linearGradient><linearGradient id="f" x1="2361%" x2="2162.7%" y1="-16584.9%" y2="-16647.5%"><stop offset="0%"/><stop offset="99%" stop-opacity="0"/></linearGradient><linearGradient id="g" x1="241.4%" x2="133.1%" y1="-426.1%" y2="-412.2%"><stop offset="0%"/><stop offset="99%" stop-opacity="0"/></linearGradient><linearGradient id="h" x1="106.8%" x2="-35.8%" y1="22.5%" y2="19.3%"><stop offset="0%"/><stop offset="100%" stop-opacity="0"/></linearGradient><linearGradient id="i" x1="14.2%" x2="114.2%" y1="-41.3%" y2="-41.3%"><stop offset="0%" stop-color="#183866"/><stop offset="100%" stop-color="#1A7FC1"/></linearGradient><linearGradient id="j" x1="40.4%" x2="71.4%" y1="39.5%" y2="68%"><stop offset="0%"/><stop offset="99%" stop-opacity="0"/></linearGradient><linearGradient id="k" x1="-12.5%" x2="93.7%" y1="44.9%" y2="53.4%"><stop offset="0%"/><stop offset="99%" stop-opacity="0"/></linearGradient><linearGradient id="l" x1="53.7%" x2="43.7%" y1="42.3%" y2="80.6%"><stop offset="0%"/><stop offset="99%" stop-opacity="0"/></linearGradient><linearGradient id="m" x1="190.9%" x2="102.2%" y1="-333.3%" y2="-335%"><stop offset="0%"/><stop offset="99%" stop-opacity="0"/></linearGradient><linearGradient id="n" x1="168.6%" x2="111.5%" y1="-126.3%" y2="-126.9%"><stop offset="0%"/><stop offset="99%" stop-opacity="0"/></linearGradient><linearGradient id="o" x1="57%" x2="28.1%" y1="43.6%" y2="70%"><stop offset="0%"/><stop offset="99%" stop-opacity="0"/></linearGradient><linearGradient id="p" x1="58.1%" x2="57.2%" y1="-1473.6%" y2="-1370.2%"><stop offset="0%"/><stop offset="99%" stop-opacity="0"/></linearGradient><linearGradient id="q" x1="0%" x2="100%" y1="50%" y2="50%"><stop offset="0%" stop-color="#ECC4D7"/><stop offset="42%" stop-color="#EFD4D1"/><stop offset="100%" stop-color="#F2EAC9"/></linearGradient><linearGradient id="r" x1="99%" x2="199%" y1="-163.3%" y2="-163.3%"><stop offset="0%" stop-color="#ECC4D7"/><stop offset="42%" stop-color="#EFD4D1"/><stop offset="100%" stop-color="#F2EAC9"/></linearGradient><linearGradient id="s" x1="124.3%" x2="224.3%" y1="-84.6%" y2="-84.6%"><stop offset="0%" stop-color="#ECC4D7"/><stop offset="42%" stop-color="#EFD4D1"/><stop offset="100%" stop-color="#F2EAC9"/></linearGradient><linearGradient id="t" x1="128.9%" x2="24.1%" y1="100.4%" y2="153.1%"><stop offset="0%" stop-color="#362958" stop-opacity=".5"/><stop offset="100%" stop-color="#34313D" stop-opacity="0"/></linearGradient><linearGradient id="u" x1="3990.9%" x2="3874.4%" y1="-34225.2%" y2="-34268.3%"><stop offset="0%"/><stop offset="99%" stop-opacity="0"/></linearGradient></defs><g fill="none"><path fill="#EFF1F7" d="M583 92.2c-20.9-22.4-37.1-49-62.2-67.4-39.4-28.7-96-31.5-142-13.5-46.1 18.1-82 54.5-105.6 95.7-12.4 21.7-22.2 45.4-40.4 63.1-15.4 15-35.7 24.6-54.9 35-31 16.7-60.7 37-80.8 64.7-20 27.7-29 64.1-16.1 95.4 8.6 21.1 26 37.9 43.8 53 21 18 43.5 34.7 69.5 45.3 32.5 13.3 68.7 16.1 104.1 17.5 62.9 2.4 125.8.6 188.3-5.4 51.3-4.8 104-13 147-39.8 60-37.5 91-106.2 97.9-173.5 2.8-27 2.1-55-9-80-26.5-59.7-98-45.8-139.5-90z"/><path fill="#3F3D56" d="M178.3 202.3s-16.6-3-21.2 8.7c-4.7 11.6 0 51.7 0 51.7L219 307l-40.7-104.7z"/><path fill="#2BD0D0" d="m256.2 379.7-24.6 7a6.8 6.8 0 0 1-8.3-4.3 6.5 6.5 0 0 1 4.5-8.1l24.5-7a6.8 6.8 0 0 1 8.4 4.3 6.5 6.5 0 0 1-4.5 8.1z"/><circle cx="255" cy="395" r="11" fill="#25233A"/><circle cx="253.5" cy="397.5" r="5.5" fill="#3F3D56"/><circle cx="210" cy="384" r="11" fill="#25233A"/><path fill="url(#a)" d="M214 384.5a5.5 5.5 0 1 1-11 0 5.5 5.5 0 0 1 11 0z"/><circle cx="207" cy="399" r="11" fill="#25233A"/><path fill="#3F3D56" d="M216 399.5a5.5 5.5 0 1 1-11 0 5.5 5.5 0 0 1 11 0z"/><path fill="#2BD0D0" d="m257 390.9-50.7-10a6.5 6.5 0 0 1-5.2-7.7 6.6 6.6 0 0 1 7.8-5l50.8 10a6.5 6.5 0 0 1 5.2 7.6 6.6 6.6 0 0 1-7.8 5z"/><path fill="#2BD0D0" d="M226 310h14v59a7 7 0 0 1-7 7 7 7 0 0 1-7-7v-59z"/><path fill="#2BD0D0" d="m231.2 386.7-24.5 7a6.8 6.8 0 0 1-8.4-4.4 6.5 6.5 0 0 1 4.5-8l24.6-7a6.8 6.8 0 0 1 8.3 4.3 6.5 6.5 0 0 1-4.5 8.1z"/><path fill="url(#b)" d="m236 386.3-3.1.5a12.9 12.9 0 0 1-2.9.2l1.3-.2a10.3 10.3 0 0 0 2.5-.8l2.2.3z"/><path fill="url(#c)" d="M261 372.7a7 7 0 0 1-1.5 4.3l-20.5-4.4a7.1 7.1 0 0 0 1.1-2.4l12.7-4a6.2 6.2 0 0 1 4.9.6 6.7 6.7 0 0 1 3.3 6z"/><path fill="url(#d)" d="M225.2 371.1a5.8 5.8 0 0 1-.2-1.6V311h6v64a9.3 9.3 0 0 0-2.9-.5h-2l.4-.1c.3 0-1-2.1-1.3-3.3z" opacity=".3"/><path fill="url(#e)" d="M262.3 389.8c-1 .5-2 .8-3.2.8a7 7 0 0 1-1.3-.1l-22.4-4.4-1.9-.4a6.5 6.5 0 0 1-2.1 1l-1.1.4-23 6.6c-3.6 1-7.2-1-8.3-4.3a5.8 5.8 0 0 0 7.2.4 106 106 0 0 1 20.4-6.3 7.7 7.7 0 0 0 5.9-6.5c1 1.1 3 2.4 6.5 3.4 8.6 2.6 22.7 4.3 22.7 4.3s2.5 2.5.6 5.1z" opacity=".3"/><path fill="url(#f)" d="M264 388a7.6 7.6 0 0 1-2 2 119.8 119.8 0 0 0 2-2z"/><path fill="url(#g)" d="M226.3 370.6a6.8 6.8 0 0 0 1.7 3 8 8 0 0 0-.6.2L206 380a6.6 6.6 0 0 1-5-7.2 6.7 6.7 0 0 1 6.5-5.8 7.1 7.1 0 0 1 1.4.1l17.3 3.5z"/><path fill="#503164" d="M259 89.4s-.3-20.8-17-19c-16.9 1.8-15.6-5.1-22.8-4.3-7.1.7-15.5 7.7-13 16.4 2.3 8.7-6.4 10.7-12.1 17.2-5.8 6.6 1.3 12 11 18.5 9.6 6.4-.6 4.7 5 15 5.8 10 25.2-3 25.2-3L259 89.5z"/><path fill="#2BD0D0" d="m122.7 434.6 11.7.4v-93.8s.6-24.2 23.4-26.6C180.8 312 388 282 388 282s8.3-.9 13 15c4.7 15.7 9.3 77.7 9.3 77.7l63.7 8.6s1.6-109.6-21.3-115.6c-23-6-323.6 24.7-323.6 24.7s-22.3 116.4-6.4 142.1z"/><path fill="url(#h)" d="m122.7 434.6 11.7.4v-93.8s.6-24.2 23.4-26.6C180.8 312 388 282 388 282s8.3-.9 13 15c4.7 15.7 9.3 77.7 9.3 77.7l63.7 8.6s1.6-109.6-21.3-115.6c-23-6-323.6 24.7-323.6 24.7s-22.3 116.4-6.4 142.1z" opacity=".2"/><path fill="#2BD0D0" d="M62 303.8s5.7-31.8 46.1-40L393.3 231s28-1.2 40.8 6.5c12.8 7.8 31.1 14.2 38.6 49.3 7.5 35 9.3 95 9.3 95l-7 1s-10.4-108.4-21.4-115.3c-11-6.9-307.4 35.3-307.4 35.3s-20.6 4-22.4 34.5c-1.7 30.4 0 96.6 0 96.6L62 409V303.9z"/><path fill="url(#i)" d="M355.4 243.8a271 271 0 0 0-44.5-2.7c-11.2.5-22.3 2-33.4 3.5l-97.7 13.5c-1.7.2-3.6.6-4.4 2-1.6 2.8 2.1 5.5 5.2 6.6 32.5 11.2 67.2 22.6 100.7 14.6 15.3-3.7 29.5-11.3 45-14 15.5-2.6 31.5-.1 47-2.6 14.5-2.4 28.4-9 43.1-9.1 4.5 0 9.2.6 13.5-.8 4.3-1.5 8-5.8 6.9-10.1-13.9-.5-29.4-3-43-.3-13.5 2.7-25-.6-38.4-.6z" opacity=".2"/><path fill="#2BD0D0" d="m267 259.4.6 2s16.8 10.3 16.7 10.6c0 .3 70-16.2 70-16.2l1.7-4.8-89 8.4z"/><path fill="url(#j)" d="m267 259.4.6 2s16.8 10.3 16.7 10.6c0 .3 70-16.2 70-16.2l1.7-4.8-89 8.4z"/><path fill="#2BD0D0" d="m268 259.4 62.1-13.4 25.9 5-70.6 17z"/><path fill="url(#k)" d="m268 259.4 62.1-13.4 25.9 5-70.6 17z"/><path fill="#2BD0D0" d="m247.8 270.5 14.5.5s3.7.2 4.6-2.7c1-3-5.9-9.2-6.6-9.3-.7-.1-19.8 5.2-17 10.6l4.5.9z"/><path fill="url(#l)" d="m247.8 270.5 14.5.5s3.7.2 4.6-2.7c1-3-5.9-9.2-6.6-9.3-.7-.1-19.8 5.2-17 10.6l4.5.9z"/><path fill="#2BD0D0" d="m79 416-7 21.7c-20.5 7.4-38 0-38 0L29 415s25.5 8.6 50 1z"/><path fill="url(#m)" d="m79 416-7 21.7c-20.5 7.4-38 0-38 0L29 415s25.5 8.6 50 1z"/><path fill="#2BD0D0" d="m87 396-2.3 17-5.8 3a94.7 94.7 0 0 1-50.4-1l-4.4-3.4L22 396h65z"/><path fill="url(#n)" d="m87 396-2.3 17-5.8 3a94.7 94.7 0 0 1-50.4-1l-4.4-3.4L22 396h65z"/><ellipse cx="54.5" cy="395" fill="#2BD0D0" rx="32.5" ry="6"/><ellipse cx="54.5" cy="395" fill="url(#o)" rx="32.5" ry="6"/><path fill="#2BD0D0" d="M39.6 265c-3.1-1.5-6.6-2.6-9.3-4.8-5.6-4.5-7-12.3-8.7-19.2-1.7-7-5.1-14.6-12-16.6-2.5-.8-5.5-.5-7.5 1.4s-2.4 5-1.9 7.9c.6 2.8 2 5.3 3 8A36.9 36.9 0 0 1 5.4 261c-.9 5.4-3 10.9-1.6 16.2 2.2 9 13.5 14.2 13.8 23.4.2 6.2-5 12-3.8 18.2.9 4.5 5 8 5.3 12.6.2 5.3-4.7 9.7-4.5 15 .3 5.2 5.5 8.7 8.9 12.8a21.4 21.4 0 0 1 4.8 12.2c.2 2.8-.2 5.6.7 8.3.7 2 2 3.6 3 5.3 1.1 1.9 2 4 3.4 5.7a13.7 13.7 0 0 0 14.7 4.6c1-7 .1-14 .4-21 .6-13.7 5.7-27.4 2.4-40.6-1.2-4.8-3.5-9.4-4-14.4-.3-4.4.9-8.8 1.7-13.2 1.7-9 1.7-18.4 1-27.6-.6-7.2-5.6-10.6-12-13.6z"/><path fill="#2BD0D0" d="M59.8 300.8c-.1 6 1.3 12.3-.7 18-1.4 4.4-4.7 8-6.3 12.3-3.9 9.9 1.3 21 .2 31.5-.4 4.4-1.9 8.6-2.8 12.9a51.2 51.2 0 0 0-.9 16.4 4.2 4.2 0 0 0 3.3 4.4 52 52 0 0 0 10.1 2.7 26.6 26.6 0 0 1 3.5-18.6c5.2-8.6 15.5-14.4 17.4-24.3 1.3-6.8-1.7-13.6-1.5-20.4a21.9 21.9 0 0 1 4.5-12.6c2.4-3.2 5.8-5.7 8.1-9 5.6-8 3.8-18.9 2.2-28.5-1.7-9.7-2.6-20.8 3.9-28 2-2.4 4.7-4.1 6.6-6.6 4.2-5.5 3.1-14-1.7-18.9a19 19 0 0 0-19.2-4.1 13.9 13.9 0 0 0-7 4.8c-3.4 4.7-2 11.1-.6 16.7 1.2 4.9 2.2 10.5.5 15.4-1.3 3.6-4.4 5.6-7.2 8.2a38.9 38.9 0 0 0-12.5 27.7z"/><path fill="#30C59B" d="M53 354.5c-.9 6.6-2.2 13.3-2.5 19.9v.6a1.8 1.8 0 0 1-.1.5 51.7 51.7 0 0 0-.9 16.5c0 1 .3 1.8.7 2.6l-.1.8a13.7 13.7 0 0 1-14.8-4.6C34 389 33.1 387 32 385c-1-1.7-2.4-3.4-3-5.3-1-2.7-.6-5.5-.7-8.3a21.4 21.4 0 0 0-4.9-12.2c-3.4-4.1-8.5-7.5-8.8-12.9-.2-5.3 4.7-9.6 4.4-14.8-.2-4.7-4.3-8.2-5.2-12.7-1.2-6.2 4-12 3.7-18.2-.3-9.2-11.5-14.5-13.7-23.4-1.4-5.3.7-10.8 1.6-16.2a36.9 36.9 0 0 0-2.2-19.4c-1-2.7-2.4-5.2-3-8-.5-2.8-.1-6 2-8 2-1.8 4.9-2 7.4-1.3 7 2 10.2 9.6 12 16.6 1.7 7 3.1 14.7 8.7 19.2 2.7 2.2 6.2 3.4 9.3 4.9 6.4 3 11.5 6.3 12 13.5.7 9.2.7 18.5-1 27.6-.8 4.3-2 8.7-1.6 13.2.4 4.4 2.3 8.6 3.5 13l.4 1.4c1.7 6.8 1.2 13.8.2 20.7z"/><path fill="url(#p)" d="M49.7 394a7.8 7.8 0 0 1-.5-2.5 67.1 67.1 0 0 1 .6-16l.1-.5c-.1 6.3.4 12.7-.2 19z"/><path fill="#30C59B" d="M107.4 251c-1.9 2.5-4.6 4.2-6.6 6.5-6.6 7.3-5.6 18.4-4 28 1.7 9.7 3.4 20.5-2.1 28.6-2.3 3.3-5.7 5.8-8.2 9a21.9 21.9 0 0 0-4.5 12.6c-.2 6.8 2.8 13.6 1.5 20.4-1.9 9.9-12.1 15.7-17.4 24.3a26.6 26.6 0 0 0-3.4 18.6 51.8 51.8 0 0 1-10.1-2.7 5.4 5.4 0 0 1-2.4-1.4 2.5 2.5 0 0 1-.2-.4 6.2 6.2 0 0 1-.7-2.5 51.1 51.1 0 0 1 1-17c1-4 2.3-8.1 2.8-12.3a39.8 39.8 0 0 0-.2-8.2c1-7 1.6-13.9-.1-20.7a37.4 37.4 0 0 0-.4-1.4c0-.4.2-.9.4-1.3 1.7-4.3 4.9-7.9 6.4-12.2 2-5.8.5-12 .6-18.1a39 39 0 0 1 12.4-27.7c2.7-2.6 6-4.6 7.2-8.2 1.7-4.9.6-10.5-.6-15.4-1.4-5.6-2.7-12 .6-16.7 1.7-2.4 4.3-3.9 7-4.8a19 19 0 0 1 19.3 4.1c4.8 5 5.9 13.4 1.7 19z"/><path fill="#2BD0D0" d="M225.6 146.2s-27.8 4.3-40.7 35c-12.9 30.6-6.2 68.6-6 72 .3 3.3 39.5 17.8 50.7 17.8 11.2 0 13.5-11.2 13.5-11.2l-19.8-8.5 60.2-7h10.8l-6 10.1s11.8 1.2 19.6 1.5c7.9.3 13.2-15.2 14-23 1-7.6-34.6-75.4-39.9-79.4-5.3-4-19.7-13.8-56.4-7.4z"/><path fill="url(#q)" d="M258.4 88.8s5 2.8 4.6 12c-.5 9.1-3.3 22.9-6.2 26.5-2.9 3.5-12.9 5-12.9 5s5.5 13 9.6 16.3c4 3.3-4.1 15.7-12 11.6-8-4-17.2-14.2-17.2-14.2s6.6-12.3 4.4-18.7c-2.2-6.5-10.8-29-4.4-35.3 6.4-6.1 20.2-15 34-3.2z"/><path fill="#FFF" opacity=".3" d="m214.3 190-4.3 54 13.2 7 10.8-1.9-13.4-16.5zm69.7-3s17.9 42 10 57l-6.1-1.2L284 187z"/><path fill="url(#r)" d="M235.5 258s-6.7 5.8-3.7 10.3c3 4.5 6.6 4.4 9.6 2.4 3-2 9-6.8 16-4.6s8.7 3.6 8.7 3.6 3.7-2.4 2.7-4.7-8.3-9.8-10.4-10.8c-2.1-1-11 2-11 2s-6.5-1.7-11.9 1.8z"/><path fill="url(#s)" d="M295.2 245.6s-6.4.8-8 5c-1.6 4.2-2.2 4.7-2.2 4.7s3.6.7 5.1-1.3 3-1.1 3-1.1l-.4 2.5s9.8 1.4 14.2-.1c4.5-1.6 6.4-3.5 6.4-3.5l1.7-4.2s-4.2-3-7.3-3.5a60.1 60.1 0 0 0-12.5 1.5z"/><path fill="#25233A" d="M328.9 290s22 16.7 20 39.3l-4.8 56s-8.9 3.8-14.7 0c-6-3.7-9.4-54.6-12.4-59.5-2.9-4.8-20.3-26.8-39-28.6l50.9-7.2z"/><path fill="#3F3D56" d="M219 306s10.4 10 29 13c18.7 3.2 27.4 5.8 33 21.7 5.7 15.9 11.2 50.1 13 54 1.8 3.8 9.4 1.8 9.4 1.8s4.3-4.9 4.3-32.1c0-38 2.6-45.7-7-55.3-9.5-9.5-18.2-12.1-18.2-12.1l-63.5 9z"/><path fill="#25233A" d="m294 396 1.8 14.2h3.4s22 1.2 22.7.7c.7-.5-1-11.3-9.4-11-8.3.3-8.9-2-8.9-2L294 396zm37-9.8 3.5 13.8 38.4-5.2s1.4-9.1-10.8-8.2c-3.2.2-5.6 2.5-9.4 2.5a12 12 0 0 1-9.6-4.1l-12.1 1.2z"/><path fill="#2BD0D0" d="M461.8 212.3 319.6 220a6.3 6.3 0 0 1-6.6-6V112.6c0-4.1 3.3-7.5 7.3-7.6L462 102a6.8 6.8 0 0 1 4.9 2 6.9 6.9 0 0 1 2 4.8v96c0 4-3 7.3-7.1 7.5z"/><path fill="#2BD0D0" d="M469.8 212.3 327.5 220a6.3 6.3 0 0 1-6.5-6V112.6c0-4.1 3.3-7.5 7.3-7.6L470 102a6.9 6.9 0 0 1 7 6.7v96c0 4-3.2 7.4-7.2 7.6z"/><path fill="url(#t)" d="M469.8 212.3 327.5 220a6.3 6.3 0 0 1-6.5-6V112.6c0-4.1 3.3-7.5 7.3-7.6L470 102a6.9 6.9 0 0 1 7 6.7v96c0 4-3.2 7.4-7.2 7.6z"/><path fill="#3A3054" d="m427.8 251.1-36.3 3.9s-11-2.2-10.5-3.9c.6-1.6 12.2-3.2 12.2-3.2v-65.8c-.1-.1-1.6-2-5.8-3.3l-2.5-.6a7.3 7.3 0 0 1-2-.6c-2.5-1.3.2-3.5 4-3.6a9.6 9.6 0 0 1 1.9.1h27.9s10.6 3 11 17.8c.6 14.9 0 59.2 0 59.2z"/><path fill="#51466B" d="m398 251.3-6.7 3.7s-10.9-2.2-10.3-3.9c.6-1.6 12-3.2 12-3.2v-65.8c-.1-.1-1.8-1.9-5.7-3.3a28.6 28.6 0 0 0-4.4-1.2c-2.5-1.3.2-3.5 4-3.6 3.2.4 9.6 4 10 6 .4 2.1 1.1 71.3 1.1 71.3z"/><path fill="url(#u)" d="M263 389c-.9 1-1.3 1.4-.8.6l.8-.6z"/></g></svg>